<svg xmlns="http://www.w3.org/2000/svg" width="3508" height="4961" viewBox="0 0 3508 4961">
  <defs>
    <style>
      .cls-1 {
        fill: #fefefe;
        fill-rule: evenodd;
      }
    </style>
  </defs>
  <path id="С" class="cls-1" d="M226.86,1211.92v73.5c0,45.9,28.5,74.1,80.7,74.1,47.7,0,69.3-19.5,79.5-53.7,0.9-2.7.3-3.9-2.4-4.8l-5.7-2.1c-2.7-.9-3.9-0.3-5.1,2.4-9,29.7-26.1,45.3-66.3,45.3-43.5,0-66.9-23.4-66.9-60.9v-74.1c0-37.8,22.5-60.6,66.9-60.6,39,0,56.7,14.1,65.7,43.8,0.9,2.7,2.1,3,5.1,2.4l5.4-1.8c2.7-1.2,3.6-2.1,2.7-5.1-10.2-34.2-32.4-52.2-78.9-52.2C254.46,1138.12,226.86,1166.32,226.86,1211.92Z"/>
  <path id="О" class="cls-1" d="M474.861,1454.61v73.2c0,45.9,28.2,74.1,81,74.1,52.2,0,80.4-28.2,80.4-74.1v-73.2c0-45.9-28.2-74.1-80.4-74.1C503.061,1380.51,474.861,1408.71,474.861,1454.61Zm147.6,0v73.2c0,38.4-23.4,61.2-66.6,61.2-43.8,0-67.2-22.8-67.2-61.2v-73.2c0-38.4,23.4-61.2,67.2-61.2C599.062,1393.41,622.462,1416.21,622.462,1454.61Z"/>
  <path id="Е" class="cls-1" d="M856.531,1588.88h-122.4c-3,0-3.9.9-3.9,3.9v205.2c0,3,.9,3.9,3.9,3.9h126.6c2.7,0,3.9-.9,3.9-3.9v-5.4c0-2.7-1.2-3.6-3.9-3.6h-116.7v-88.5h99.6c2.7,0,3.6-.9,3.6-3.9v-5.4c0-2.7-.9-3.6-3.6-3.6h-99.6v-85.8h112.5c3,0,3.9-.9,3.9-3.6v-5.4C860.431,1589.78,859.531,1588.88,856.531,1588.88Z"/>
  <path id="Д" class="cls-1" d="M1073.65,1798.82h-118.2c-3,0-3.9.9-3.9,3.9v60.3c0,108-18.6,126-33,135.9h-12.3c-3,0-3.9.9-3.9,3.6v51.3c0,3,.9,3.9,3.9,3.9h6c2.7,0,3.9-.9,3.9-3.9v-42h171.9v42c0,3,.9,3.9,3.6,3.9h6.3c2.7,0,3.6-.9,3.6-3.9v-51.3c0-2.7-.9-3.6-3.6-3.6h-20.7v-196.2C1077.25,1799.72,1076.35,1798.82,1073.65,1798.82Zm-108.9,64.2v-51.3h98.7v187.2h-127.5C949.151,1986.32,964.751,1961.42,964.751,1863.02Z"/>
  <path id="И" class="cls-1" d="M1350.38,2043.47h-6.3a4.719,4.719,0,0,0-4.2,2.1l-95.7,137.1c-13.2,19.5-24.3,35.7-35.7,54.9h-0.6c1.8-21.6,2.1-38.7,2.1-61.5v-128.7c0-3-.9-3.9-3.6-3.9h-6.3c-3,0-3.9.9-3.9,3.9v205.2c0,3,.9,3.9,3.9,3.9h6c2.1,0,3.3-.3,4.5-2.4l98.4-141c12.6-18.3,22.2-32.7,33-50.7h0.6c-1.5,20.1-2.4,35.7-2.4,57.6v132.6c0,3,.9,3.9,3.9,3.9h6.3c2.7,0,3.9-.9,3.9-3.9v-205.2C1354.28,2044.37,1353.08,2043.47,1350.38,2043.47Z"/>
  <path id="Н" class="cls-1" d="M1605.95,2290.72h-6.3c-2.7,0-3.6.9-3.6,3.9v94.8h-126.9v-94.8c0-3-.9-3.9-3.6-3.9h-6.3c-3,0-3.9.9-3.9,3.9v205.2c0,3,.9,3.9,3.9,3.9h6.3c2.7,0,3.6-.9,3.6-3.9v-97.5h126.9v97.5c0,3,.9,3.9,3.6,3.9h6.3c3,0,3.9-.9,3.9-3.9v-205.2C1609.85,2291.62,1608.95,2290.72,1605.95,2290.72Z"/>
  <path id="И-2" data-name="И" class="cls-1" d="M1868.69,2554.03h-6.3a4.719,4.719,0,0,0-4.2,2.1l-95.7,137.1c-13.2,19.5-24.3,35.7-35.7,54.9h-0.6c1.8-21.6,2.1-38.7,2.1-61.5v-128.7c0-3-.9-3.9-3.6-3.9h-6.3c-3,0-3.9.9-3.9,3.9v205.2c0,3,.9,3.9,3.9,3.9h6c2.1,0,3.3-.3,4.5-2.4l98.4-141c12.6-18.3,22.2-32.7,33-50.7h0.6c-1.5,20.1-2.4,35.7-2.4,57.6v132.6c0,3,.9,3.9,3.9,3.9h6.3c2.7,0,3.9-.9,3.9-3.9v-205.2C1872.59,2554.93,1871.39,2554.03,1868.69,2554.03Z"/>
  <path id="Т" class="cls-1" d="M2233.01,2968.8H2089c-3,0-3.9.9-3.9,3.9v5.4c0,2.7.9,3.6,3.9,3.6h65.1v196.2c0,3,.9,3.9,3.9,3.9h6.3c2.71,0,3.61-.9,3.61-3.9V2981.7h65.1c3,0,3.9-.9,3.9-3.6v-5.4C2236.91,2969.7,2236.01,2968.8,2233.01,2968.8Z"/>
  <path id="О-2" data-name="О" class="cls-1" d="M2327.79,3223.31v73.2c0,45.9,28.2,74.1,81,74.1,52.21,0,80.41-28.2,80.41-74.1v-73.2c0-45.9-28.2-74.1-80.41-74.1C2355.99,3149.21,2327.79,3177.41,2327.79,3223.31Zm147.61,0v73.2c0,38.4-23.41,61.2-66.61,61.2-43.8,0-67.2-22.8-67.2-61.2v-73.2c0-38.4,23.4-61.2,67.2-61.2C2451.99,3162.11,2475.4,3184.91,2475.4,3223.31Z"/>
  <path id="Ч" class="cls-1" d="M2698.79,3425.35h-6.3c-3,0-3.9.9-3.9,3.9v107.7c-4.5,1.2-30.3,6.9-60.3,6.9-46.2,0-61.5-21-61.5-60.6v-54c0-3-.9-3.9-3.6-3.9h-6.6c-2.7,0-3.6.9-3.6,3.9v54c0,46.8,19.5,73.5,74.7,73.5,30.9,0,56.1-5.4,60.9-6.6v84.31c0,3,.9,3.9,3.9,3.9h6.3c2.7,0,3.9-.9,3.9-3.9V3429.25C2702.69,3426.25,2701.49,3425.35,2698.79,3425.35Z"/>
  <path id="К" class="cls-1" d="M2975.59,3820.62l-37.8-74.7c-9.3-18-20.1-28.8-38.4-33l72.9-97.5c1.5-2.1,1.2-3.9-1.8-3.9h-6.9c-4.5,0-5.7.6-7.8,3.3l-70.8,95.7a57.871,57.871,0,0,0-7.5-.3h-37.2v-94.8c0-3-.9-3.9-3.6-3.9h-6.31c-3,0-3.9.9-3.9,3.9v205.2c0,3,.9,3.9,3.9,3.9h6.31c2.7,0,3.6-.9,3.6-3.9v-97.8h38.1c25.2,0,36.6,8.7,46.5,28.5l35.1,69.9c1.5,2.7,2.7,3.3,7.5,3.3h6C2976.49,3824.52,2976.79,3822.72,2975.59,3820.62Z"/>
  <path id="И-3" data-name="И" class="cls-1" d="M3221.18,3839.57h-6.3a4.719,4.719,0,0,0-4.2,2.1l-95.7,137.1c-13.2,19.5-24.3,35.7-35.7,54.9h-0.6c1.8-21.6,2.1-38.7,2.1-61.5v-128.7c0-3-.9-3.9-3.6-3.9h-6.3c-3,0-3.9.9-3.9,3.9v205.2c0,3,.9,3.9,3.9,3.9h6c2.1,0,3.3-.3,4.5-2.4l98.4-141c12.6-18.3,22.2-32.7,33-50.7h0.6c-1.5,20.1-2.4,35.7-2.4,57.6v132.6c0,3,.9,3.9,3.9,3.9h6.3c2.7,0,3.9-.9,3.9-3.9v-205.2C3225.08,3840.47,3223.88,3839.57,3221.18,3839.57Z"/>
</svg>
