<svg id="Слой_3" data-name="Слой 3" xmlns="http://www.w3.org/2000/svg" xmlns:xlink="http://www.w3.org/1999/xlink" viewBox="0 0 189.99 63.77"><defs><style>.cls-1{fill:none;}.cls-2{fill:#fff;}.cls-3{clip-path:url(#clip-path);}.cls-4{clip-path:url(#clip-path-2);}</style><clipPath id="clip-path" transform="translate(-47.22 -111.13)"><rect class="cls-1" x="54.7" y="103.31" width="52.54" height="52.54"/></clipPath><clipPath id="clip-path-2" transform="translate(-47.22 -111.13)"><rect class="cls-1" x="56.21" y="109.5" width="48.14" height="43.93"/></clipPath></defs><title>лого дот</title><polygon class="cls-2" points="55.49 52.49 55.49 63.77 0 63.77 11.34 52.61 55.49 52.49"/><polygon class="cls-2" points="137.54 11 137.54 0.05 189.99 0.05 178.89 11 137.54 11"/><polygon class="cls-2" points="153.21 63.76 164.36 63.76 164.38 24.3 153.14 35.11 153.21 63.76"/><path class="cls-2" d="M146.65,111.46a5.73,5.73,0,0,0-2.54,1.28,5.6,5.6,0,0,0-.47,7.88,5.45,5.45,0,0,0,3.85,1.87l1.49-.11a5.58,5.58,0,0,0,3-9.17,5.44,5.44,0,0,0-3.84-1.86l-1.5.11" transform="translate(-47.22 -111.13)"/><path class="cls-2" d="M158.42,115.45a5.58,5.58,0,0,0-3,9.17,5.48,5.48,0,0,0,3.85,1.86l1.49-.11a5.54,5.54,0,0,0,2.54-1.29,5.57,5.57,0,0,0,.47-7.88,5.48,5.48,0,0,0-3.84-1.86l-1.5.11" transform="translate(-47.22 -111.13)"/><path class="cls-2" d="M165.06,121.53a5.58,5.58,0,0,0-3,9.17,5.48,5.48,0,0,0,3.84,1.86l1.5-.11a5.64,5.64,0,0,0,2.54-1.29,5.6,5.6,0,0,0,.47-7.88,5.44,5.44,0,0,0-3.85-1.86l-1.49.11" transform="translate(-47.22 -111.13)"/><path class="cls-2" d="M128.86,116a38.24,38.24,0,0,0-4.13,3,27.1,27.1,0,0,0-2.47,2.44,37.57,37.57,0,0,0-3.16,4,35.88,35.88,0,0,0-2.37,4.35,31.81,31.81,0,0,0-2.53,18,32.1,32.1,0,0,0,1.89,6.87,26.55,26.55,0,0,0,2.59,5.13,33.38,33.38,0,0,0,4.21,5.39c1,1,2,1.84,3,2.7a25,25,0,0,0,2.45,1.77l.07.05,0,0,.06,0a.57.57,0,0,1,.13.08,40.56,40.56,0,0,0,4.34,2.26,26.72,26.72,0,0,0,3.47,1.28,38.19,38.19,0,0,0,4.95,1,26.59,26.59,0,0,0,3.89.28,37.66,37.66,0,0,0,5-.35,25.78,25.78,0,0,0,3.69-.79c1-.28,1.94-.6,2.89-1l.57-.21a4.25,4.25,0,0,0,.49-.21l.57-.25a27.24,27.24,0,0,0,2.85-1.45l.14-.09c1.15-.69,2.27-1.45,3.36-2.26a31.86,31.86,0,0,0,6-6,25.52,25.52,0,0,0,2.13-3.21,37.14,37.14,0,0,0,2.22-4.63,26.8,26.8,0,0,0,1-3.37,37.59,37.59,0,0,0,.89-5.05,25.63,25.63,0,0,0,.08-4.11h0c-.06-1-.13-1.92-.23-2.87a6.87,6.87,0,0,0-.12-.88v-.17a27,27,0,0,0-.71-3.21,36.35,36.35,0,0,0-1.82-5,5.5,5.5,0,0,0-3.17-2.76,5.59,5.59,0,0,0-7.09,3.49c-.1.49-.19,1-.29,1.47a5.54,5.54,0,0,0,.6,2.85c.21.48.42,1,.6,1.45a26.15,26.15,0,0,1,.89,3.59c0,.16,0,.31.07.47v0c.06.41.11.82.15,1.22a26.08,26.08,0,0,1-.32,5.44,20.45,20.45,0,0,1-4.68,9.59,26.8,26.8,0,0,1-3.94,3.5,27.46,27.46,0,0,1-2.42,1.38l-1.12.53-.25.09-.4.18-.56.23a26.74,26.74,0,0,1-5.3,1.12,20.62,20.62,0,0,1-10.65-2.08c-.6-.31-1.19-.65-1.76-1a27.55,27.55,0,0,1-2.63-1.91,27.86,27.86,0,0,1-3.5-3.94,27.17,27.17,0,0,1-2.41-4.75,26.79,26.79,0,0,1-1.12-5.32,26.38,26.38,0,0,1,.33-5.47,27,27,0,0,1,1.75-5.18,20.73,20.73,0,0,1,6.94-7.93l1.06-.72a5.59,5.59,0,0,0-1.9-9.46l-1.47-.29h-.33a5.46,5.46,0,0,0-2.53.61" transform="translate(-47.22 -111.13)"/><g class="cls-3"><g class="cls-4"><rect class="cls-2" x="11.34" y="0.01" width="11.26" height="40.98"/><rect class="cls-2" x="11.4" y="29.79" width="43.34" height="11.19"/><rect class="cls-2" x="44.26" y="11" width="11.18" height="29.95"/><rect class="cls-2" x="21.42" width="22.91" height="11"/><polygon class="cls-2" points="55.45 11 44.33 0 44.33 11 55.45 11"/></g><polygon class="cls-2" points="44.33 0 40.36 11 44.33 11 44.33 15.51 55.44 15.5 55.45 11 44.33 0"/></g></svg>