<?xml version="1.0" encoding="UTF-8"?>
<svg width="47px" height="47px" viewBox="0 0 47 47" version="1.1" xmlns="http://www.w3.org/2000/svg" xmlns:xlink="http://www.w3.org/1999/xlink">
    <!-- Generator: Sketch 52.4 (67378) - http://www.bohemiancoding.com/sketch -->
    <title>Group 11 Copy 3</title>
    <desc>Created with Sketch.</desc>
    <defs>
        <polygon id="path-1" points="0.125595997 0.174397959 8.83927678 0.174397959 8.83927678 8.87346276 0.125595997 8.87346276"></polygon>
        <polygon id="path-3" points="4.59062695e-05 0.042573913 46.9070763 0.042573913 46.9070763 44 4.59062695e-05 44"></polygon>
    </defs>
    <g id="Page-1" stroke="none" stroke-width="1" fill="none" fill-rule="evenodd">
        <g id="iPhone-SE-(320-x-568)" transform="translate(-8.000000, -7.000000)">
            <g id="Group-11-Copy-3" transform="translate(8.000000, 7.000000)">
                <g id="Group-3" transform="translate(21.000000, 0.000000)">
                    <mask id="mask-2" fill="white">
                        <use xlink:href="#path-1"></use>
                    </mask>
                    <g id="Clip-2"></g>
                    <path d="M3.5757551,0.260967857 C2.82636735,0.423335204 2.16440816,0.758998469 1.58987755,1.26561582 C0.729642857,2.0298352 0.201168367,3.11644745 0.133255102,4.26550867 C0.0645612245,5.4145699 0.460331633,6.55660561 1.22455102,7.41684031 C1.95052041,8.23492194 3.10504592,8.87346276 4.22444388,8.87346276 C4.61240816,8.84536071 5.00115306,8.81569745 5.38989796,8.7868148 C6.1385051,8.62444745 6.8012449,8.28878418 7.37577551,7.78216684 C8.2360102,7.01872806 8.76370408,5.93211582 8.83161735,4.78227398 C8.90031122,3.63321276 8.50454082,2.49117704 7.74110204,1.63094235 C7.01435204,0.812860714 5.86060714,0.174319898 4.74042857,0.174319898 C4.35246429,0.203202551 3.9645,0.232085204 3.5757551,0.260967857" id="Fill-1" fill="#FFFFFF" mask="url(#mask-2)"></path>
                </g>
                <path d="M33.1675724,3.07968413 C32.4795612,3.22900215 31.8718179,3.53768844 31.3443426,4.00358938 C30.5545631,4.70567121 30.0700885,5.70567121 30.0070208,6.76238335 C29.9439531,7.81909548 30.3080257,8.86934673 31.0089371,9.66044508 C31.675448,10.4127782 32.7354153,11 33.7631321,11 C34.1193213,10.9741565 34.4762271,10.9468772 34.8331329,10.9203159 C35.5204275,10.7709978 36.1288874,10.4623116 36.6563627,9.99641062 C37.4461423,9.29432879 37.9306169,8.29504666 37.9929679,7.23761665 C38.0560356,6.18090452 37.6926797,5.13065327 36.9917682,4.33955492 C36.3252573,3.58722182 35.26529,3 34.2368565,3 C33.8813841,3.02656138 33.5244782,3.05312276 33.1675724,3.07968413" id="Fill-4" fill="#FFFFFF"></path>
                <path d="M38.1668626,8.07897335 C37.479569,8.2290227 36.8711099,8.5377367 36.3436354,9.00367944 C35.5538569,9.70582428 35.069383,10.7051961 35.0070321,11.762721 C34.9439645,12.819528 35.3073199,13.8698735 36.0082304,14.6603249 C36.675457,15.4134434 37.7347061,16 38.7631381,16 C39.1193268,15.9741542 39.4762321,15.9475904 39.8324208,15.9210267 C40.520431,15.7709773 41.1281734,15.4629812 41.655648,14.9970385 C42.4461431,14.2941757 42.930617,13.2948039 42.9929679,12.237279 C43.0560355,11.180472 42.6926801,10.1301265 41.9917696,9.33895719 C41.324543,8.58727452 40.2645772,8 39.2368619,8 C38.8806732,8.02584582 38.5237679,8.05240958 38.1668626,8.07897335" id="Fill-6" fill="#FFFFFF"></path>
                <g id="Group-10" transform="translate(0.000000, 3.000000)">
                    <mask id="mask-4" fill="white">
                        <use xlink:href="#path-3"></use>
                    </mask>
                    <g id="Clip-9"></g>
                    <path d="M11.1110512,0.490017391 C10.0509253,1.18010435 9.01225352,1.90209855 8.05421933,2.72946087 C7.40393975,3.28969275 6.79656827,3.89889855 6.22692632,4.54001159 C5.39243785,5.48090435 4.59124015,6.42995942 3.8943535,7.47770435 C3.21300254,8.50170435 2.67295238,9.59545507 2.13660119,10.7018203 C1.14527624,12.7446261 0.608925052,14.9306435 0.244946039,17.1656348 C-0.124211537,19.4325333 -0.0428341155,21.7632464 0.268619471,24.033113 C0.509792557,25.7939478 1.04614374,27.4664812 1.66165297,29.1293681 C2.15731545,30.4650203 2.80907461,31.7420522 3.58289991,32.9382029 C4.50616375,34.3651246 5.50340706,35.7222957 6.69891537,36.933287 C7.40172037,37.6434087 8.16370895,38.3008464 8.9316159,38.9360232 C9.507916,39.4116638 10.1152875,39.8487188 10.7426334,40.2546087 C10.7603885,40.2657391 10.7781436,40.2776116 10.7958986,40.288742 C10.8025568,40.2939362 10.8099547,40.2976464 10.8173527,40.3020986 L10.8639598,40.3317797 C10.8942913,40.3518145 10.9246229,40.3703652 10.9556943,40.389658 C11.9825294,41.0255768 13.0670685,41.568 14.1641841,42.0688696 C14.9964532,42.4487884 15.8597937,42.7611826 16.73793,43.0179246 C17.9319587,43.3681623 19.1666761,43.6056116 20.3939956,43.7903768 C21.3468513,43.9350725 22.3115436,43.999629 23.2740166,44.000371 C24.5035554,44.001113 25.741232,43.9016812 26.9589342,43.7362087 C27.882198,43.6100638 28.7936251,43.4097159 29.688037,43.1514899 C30.4078572,42.9444638 31.122499,42.7084986 31.8245642,42.4421101 C31.9673446,42.3983304 32.1093852,42.3463884 32.2492064,42.2862841 C32.3705327,42.2395362 32.4911192,42.1861101 32.6102262,42.1274899 C32.751527,42.0681275 32.8928278,42.0065391 33.0333888,41.9442087 C33.7554285,41.6266203 34.4582335,41.2674783 35.1388446,40.8660406 L35.2401965,40.7962899 C36.0983584,40.2857739 36.9261887,39.7210899 37.7318252,39.1230145 C39.419297,37.8719536 40.8678151,36.3166609 42.1587569,34.6649043 C42.7446744,33.913229 43.268449,33.1140638 43.7374789,32.2852174 C44.3603861,31.1825623 44.9167117,30.0287072 45.3768641,28.8481391 C45.6957156,28.0326493 45.9516846,27.1934145 46.1573475,26.3430493 C46.4540052,25.1157333 46.6877803,23.8587362 46.815025,22.6009971 C46.9163769,21.5881275 46.9311728,20.5663536 46.8734688,19.5497739 L46.8734688,19.5468058 C46.8290811,18.8366841 46.7809945,18.1273043 46.7010966,17.4208928 C46.6907395,17.2034783 46.6626273,16.9860638 46.6174998,16.7671652 C46.6138009,16.7411942 46.6093621,16.7167072 46.6056631,16.6914783 C46.6034437,16.6744116 46.6004846,16.6566029 46.5982652,16.6395362 C46.4717603,15.8351768 46.2964289,15.0397217 46.0730109,14.2576232 C45.7142105,13.0043362 45.2666346,11.7658899 44.731763,10.5779014 C44.3004627,9.62142609 43.355005,8.86381449 42.3806953,8.53064348 C41.3346256,8.17372754 40.1650101,8.25609275 39.1788637,8.75844638 C38.2252683,9.24447536 37.4832542,10.1000348 37.1392496,11.1166145 C37.0682293,11.4802087 36.9964692,11.8430609 36.9269285,12.2066551 C36.8847602,12.9531362 37.0304998,13.6602899 37.364887,14.3273739 C37.5246827,14.6813217 37.674861,15.0397217 37.8146822,15.4025739 C38.0935848,16.2737159 38.3125641,17.1619246 38.467921,18.0642319 C38.4819771,18.1799884 38.5004719,18.296487 38.5248852,18.4129855 C38.5263647,18.4211478 38.5278443,18.4278261 38.5285841,18.4352464 C38.5729718,18.7379942 38.6114411,19.040742 38.6432523,19.3442319 C38.7009563,20.6932406 38.6217983,22.0452174 38.4042986,23.3779014 C38.1046817,24.7046493 37.6726416,25.9957797 37.1096578,27.2342261 C36.4971078,28.3917913 35.7721089,29.4818319 34.942799,30.4947014 C34.0587443,31.4534029 33.082955,32.3200928 32.0294873,33.0880928 C31.4494882,33.4598493 30.8524739,33.8019246 30.2377045,34.1113507 C29.9647202,34.2486261 29.688037,34.3799652 29.4083946,34.5046261 C29.3469916,34.526887 29.2863284,34.5513739 29.2256653,34.5773449 C29.125793,34.6174145 29.0266605,34.6626783 28.9282678,34.7109101 C28.7891864,34.7687884 28.6501049,34.8244406 28.5110235,34.8793507 C27.2348776,35.2889507 25.9224817,35.5672116 24.5901114,35.7089391 C23.232588,35.7683014 21.8750647,35.6859362 20.5345566,35.4648116 C19.217722,35.1642899 17.9378771,34.731687 16.709078,34.169971 C16.2666808,33.9340058 15.8339008,33.682458 15.4092587,33.4145855 C14.7330863,32.9812406 14.0842863,32.5093101 13.4643383,31.9995362 C12.5077837,31.1128116 11.641484,30.1333333 10.8772761,29.074458 C10.1678129,27.9636406 9.57079855,26.7852986 9.09511053,25.5535304 C8.68378466,24.2690783 8.40562183,22.9467826 8.26432104,21.6037101 C8.20661705,20.2450551 8.29021385,18.8864 8.5091931,17.5440696 C8.80880997,16.2225159 9.2408501,14.9358377 9.8030941,13.7033275 C10.4141646,12.5516986 11.1376838,11.4653681 11.962555,10.4569507 C12.8636249,9.47969855 13.8593887,8.59668406 14.9365298,7.81903768 C15.1984172,7.6402087 15.4603045,7.46137971 15.721452,7.2818087 C16.2629818,6.79652174 16.6528536,6.20957681 16.8903277,5.52023188 C17.246169,4.47026087 17.1640518,3.29785507 16.6632107,2.31021449 C16.1786452,1.3529971 15.3256618,0.608742029 14.3128828,0.262214493 C13.9496436,0.191721739 13.587884,0.120486957 13.2253846,0.0492521739 C13.1432674,0.0448 13.0618899,0.042573913 12.9805125,0.042573913 C12.3257942,0.042573913 11.702887,0.191721739 11.1110512,0.490017391" id="Fill-8" fill="#FFFFFF" mask="url(#mask-4)"></path>
                </g>
            </g>
        </g>
    </g>
</svg>